<mxfile host="Electron" modified="2024-03-31T13:16:17.614Z" agent="Mozilla/5.0 (Windows NT 10.0; Win64; x64) AppleWebKit/537.36 (KHTML, like Gecko) draw.io/21.8.2 Chrome/114.0.5735.289 Electron/25.8.1 Safari/537.36" etag="8Gw5JLAHNzo4fPO2oZ-S" version="21.8.2" type="device">
  <diagram name="Page-1" id="CMNAbyIfZospv8cuNg1a">
    <mxGraphModel dx="2155" dy="965" grid="1" gridSize="10" guides="1" tooltips="1" connect="1" arrows="1" fold="1" page="0" pageScale="1" pageWidth="850" pageHeight="1100" math="0" shadow="0">
      <root>
        <mxCell id="0" />
        <mxCell id="1" parent="0" />
        <mxCell id="aQniBjz_ST8hZNO2w5Fb-13" style="edgeStyle=orthogonalEdgeStyle;rounded=0;orthogonalLoop=1;jettySize=auto;html=1;exitX=1;exitY=0.5;exitDx=0;exitDy=0;entryX=0;entryY=0.5;entryDx=0;entryDy=0;" parent="1" source="aQniBjz_ST8hZNO2w5Fb-1" target="aQniBjz_ST8hZNO2w5Fb-4" edge="1">
          <mxGeometry relative="1" as="geometry" />
        </mxCell>
        <mxCell id="aQniBjz_ST8hZNO2w5Fb-1" value="Flatten" style="rounded=0;whiteSpace=wrap;html=1;fillColor=#f0a30a;fontColor=#000000;strokeColor=#BD7000;" parent="1" vertex="1">
          <mxGeometry x="30" y="200" width="120" height="60" as="geometry" />
        </mxCell>
        <mxCell id="aQniBjz_ST8hZNO2w5Fb-3" style="edgeStyle=orthogonalEdgeStyle;rounded=0;orthogonalLoop=1;jettySize=auto;html=1;exitX=1;exitY=0.5;exitDx=0;exitDy=0;entryX=0;entryY=0.5;entryDx=0;entryDy=0;" parent="1" source="E_g5zq5oNLUjieLQP0NN-1" target="aQniBjz_ST8hZNO2w5Fb-1" edge="1">
          <mxGeometry relative="1" as="geometry">
            <mxPoint x="-110" y="230" as="sourcePoint" />
          </mxGeometry>
        </mxCell>
        <mxCell id="aQniBjz_ST8hZNO2w5Fb-4" value="Create &amp;amp; Apply Dense Layer" style="rounded=0;whiteSpace=wrap;html=1;fillColor=#f0a30a;fontColor=#000000;strokeColor=#BD7000;" parent="1" vertex="1">
          <mxGeometry x="280" y="200" width="120" height="60" as="geometry" />
        </mxCell>
        <mxCell id="aQniBjz_ST8hZNO2w5Fb-6" value="Get Tunable Int" style="rounded=0;whiteSpace=wrap;html=1;fillColor=#f0a30a;fontColor=#000000;strokeColor=#BD7000;" parent="1" vertex="1">
          <mxGeometry x="-340" y="-60" width="120" height="60" as="geometry" />
        </mxCell>
        <mxCell id="aQniBjz_ST8hZNO2w5Fb-7" value="Get Tunable Int" style="rounded=0;whiteSpace=wrap;html=1;fillColor=#f0a30a;fontColor=#000000;strokeColor=#BD7000;" parent="1" vertex="1">
          <mxGeometry x="-340" y="40" width="120" height="60" as="geometry" />
        </mxCell>
        <mxCell id="aQniBjz_ST8hZNO2w5Fb-8" value="hp_units" style="shape=display;whiteSpace=wrap;html=1;fillColor=#647687;strokeColor=#314354;fontColor=#ffffff;size=0.2727272727272727;" parent="1" vertex="1">
          <mxGeometry x="-160" y="-55" width="140" height="50" as="geometry" />
        </mxCell>
        <mxCell id="aQniBjz_ST8hZNO2w5Fb-9" value="hp_layers" style="shape=display;whiteSpace=wrap;html=1;fillColor=#647687;strokeColor=#314354;fontColor=#ffffff;size=0.2727272727272727;" parent="1" vertex="1">
          <mxGeometry x="-160" y="45" width="140" height="50" as="geometry" />
        </mxCell>
        <mxCell id="aQniBjz_ST8hZNO2w5Fb-10" style="edgeStyle=orthogonalEdgeStyle;rounded=0;orthogonalLoop=1;jettySize=auto;html=1;exitX=1;exitY=0.5;exitDx=0;exitDy=0;entryX=0;entryY=0.5;entryDx=0;entryDy=0;entryPerimeter=0;" parent="1" source="aQniBjz_ST8hZNO2w5Fb-6" target="aQniBjz_ST8hZNO2w5Fb-8" edge="1">
          <mxGeometry relative="1" as="geometry" />
        </mxCell>
        <mxCell id="aQniBjz_ST8hZNO2w5Fb-11" style="edgeStyle=orthogonalEdgeStyle;rounded=0;orthogonalLoop=1;jettySize=auto;html=1;exitX=1;exitY=0.5;exitDx=0;exitDy=0;entryX=0;entryY=0.5;entryDx=0;entryDy=0;entryPerimeter=0;" parent="1" source="aQniBjz_ST8hZNO2w5Fb-7" target="aQniBjz_ST8hZNO2w5Fb-9" edge="1">
          <mxGeometry relative="1" as="geometry" />
        </mxCell>
        <mxCell id="aQniBjz_ST8hZNO2w5Fb-30" style="edgeStyle=orthogonalEdgeStyle;rounded=0;orthogonalLoop=1;jettySize=auto;html=1;exitX=0;exitY=0.5;exitDx=0;exitDy=0;exitPerimeter=0;entryX=0;entryY=0.25;entryDx=0;entryDy=0;" parent="1" source="aQniBjz_ST8hZNO2w5Fb-23" target="aQniBjz_ST8hZNO2w5Fb-4" edge="1">
          <mxGeometry relative="1" as="geometry" />
        </mxCell>
        <mxCell id="aQniBjz_ST8hZNO2w5Fb-23" value="hp_units" style="shape=display;whiteSpace=wrap;html=1;fillColor=#647687;strokeColor=#314354;fontColor=#ffffff;size=0.2727272727272727;direction=west;" parent="1" vertex="1">
          <mxGeometry x="160" y="160" width="80" height="20" as="geometry" />
        </mxCell>
        <mxCell id="aQniBjz_ST8hZNO2w5Fb-33" value="Repeat Loop" style="swimlane;html=1;startSize=20;horizontal=0;childLayout=flowLayout;flowOrientation=west;resizable=1;interRankCellSpacing=50;containerType=tree;fontSize=12;container=1;autosize=0;fillColor=#d80073;fontColor=#ffffff;strokeColor=#A50040;" parent="1" vertex="1">
          <mxGeometry x="767" y="138" width="480" height="170" as="geometry" />
        </mxCell>
        <mxCell id="aQniBjz_ST8hZNO2w5Fb-49" style="edgeStyle=orthogonalEdgeStyle;rounded=0;orthogonalLoop=1;jettySize=auto;html=1;exitX=1;exitY=0.5;exitDx=0;exitDy=0;entryX=1;entryY=0.5;entryDx=0;entryDy=0;noEdgeStyle=1;orthogonal=1;" parent="aQniBjz_ST8hZNO2w5Fb-33" source="aQniBjz_ST8hZNO2w5Fb-43" target="aQniBjz_ST8hZNO2w5Fb-48" edge="1">
          <mxGeometry relative="1" as="geometry">
            <Array as="points">
              <mxPoint x="302" y="70.55555555555554" />
              <mxPoint x="328" y="70.55555555555554" />
            </Array>
          </mxGeometry>
        </mxCell>
        <mxCell id="aQniBjz_ST8hZNO2w5Fb-43" value="Create &amp;amp; Apply Dense Layer" style="rounded=0;whiteSpace=wrap;html=1;fillColor=#f0a30a;fontColor=#000000;strokeColor=#BD7000;" parent="aQniBjz_ST8hZNO2w5Fb-33" vertex="1">
          <mxGeometry x="170" y="40.55555555555555" width="120" height="60" as="geometry" />
        </mxCell>
        <mxCell id="aQniBjz_ST8hZNO2w5Fb-44" value="hp_units" style="shape=display;whiteSpace=wrap;html=1;fillColor=#647687;strokeColor=#314354;fontColor=#ffffff;size=0.2727272727272727;direction=west;" parent="aQniBjz_ST8hZNO2w5Fb-33" vertex="1">
          <mxGeometry x="40" y="20" width="80" height="20" as="geometry" />
        </mxCell>
        <mxCell id="aQniBjz_ST8hZNO2w5Fb-45" style="edgeStyle=orthogonalEdgeStyle;rounded=0;orthogonalLoop=1;jettySize=auto;html=1;exitX=0;exitY=0.5;exitDx=0;exitDy=0;exitPerimeter=0;entryX=0;entryY=0.5;entryDx=0;entryDy=0;noEdgeStyle=1;orthogonal=1;" parent="aQniBjz_ST8hZNO2w5Fb-33" source="aQniBjz_ST8hZNO2w5Fb-44" target="aQniBjz_ST8hZNO2w5Fb-43" edge="1">
          <mxGeometry relative="1" as="geometry">
            <Array as="points">
              <mxPoint x="132" y="30" />
              <mxPoint x="158" y="58.05555555555555" />
            </Array>
          </mxGeometry>
        </mxCell>
        <mxCell id="aQniBjz_ST8hZNO2w5Fb-46" value="payload" style="triangle;whiteSpace=wrap;html=1;align=left;fillColor=#0050ef;fontColor=#ffffff;strokeColor=#001DBC;" parent="aQniBjz_ST8hZNO2w5Fb-33" vertex="1">
          <mxGeometry x="50" y="70" width="60" height="80" as="geometry" />
        </mxCell>
        <mxCell id="aQniBjz_ST8hZNO2w5Fb-47" style="edgeStyle=orthogonalEdgeStyle;rounded=0;orthogonalLoop=1;jettySize=auto;html=1;exitX=1;exitY=0.5;exitDx=0;exitDy=0;entryX=0;entryY=0.75;entryDx=0;entryDy=0;noEdgeStyle=1;orthogonal=1;" parent="aQniBjz_ST8hZNO2w5Fb-33" source="aQniBjz_ST8hZNO2w5Fb-46" target="aQniBjz_ST8hZNO2w5Fb-43" edge="1">
          <mxGeometry relative="1" as="geometry">
            <Array as="points">
              <mxPoint x="132" y="110" />
              <mxPoint x="158" y="83.05555555555554" />
            </Array>
          </mxGeometry>
        </mxCell>
        <mxCell id="aQniBjz_ST8hZNO2w5Fb-48" value="payload" style="triangle;whiteSpace=wrap;html=1;direction=west;align=right;fillColor=#0050ef;fontColor=#ffffff;strokeColor=#001DBC;" parent="aQniBjz_ST8hZNO2w5Fb-33" vertex="1">
          <mxGeometry x="340" y="30.55555555555555" width="120" height="80" as="geometry" />
        </mxCell>
        <mxCell id="aQniBjz_ST8hZNO2w5Fb-35" style="edgeStyle=orthogonalEdgeStyle;rounded=0;orthogonalLoop=1;jettySize=auto;html=1;exitX=0;exitY=0.5;exitDx=0;exitDy=0;exitPerimeter=0;entryX=0;entryY=0;entryDx=0;entryDy=0;" parent="1" source="aQniBjz_ST8hZNO2w5Fb-34" target="aQniBjz_ST8hZNO2w5Fb-33" edge="1">
          <mxGeometry relative="1" as="geometry" />
        </mxCell>
        <mxCell id="aQniBjz_ST8hZNO2w5Fb-34" value="hp_layers" style="shape=display;whiteSpace=wrap;html=1;fillColor=#647687;strokeColor=#314354;fontColor=#ffffff;size=0.2727272727272727;direction=west;" parent="1" vertex="1">
          <mxGeometry x="637" y="78" width="90" height="30" as="geometry" />
        </mxCell>
        <mxCell id="aQniBjz_ST8hZNO2w5Fb-40" style="edgeStyle=orthogonalEdgeStyle;rounded=0;orthogonalLoop=1;jettySize=auto;html=1;exitX=1;exitY=0.5;exitDx=0;exitDy=0;exitPerimeter=0;entryX=0;entryY=0.5;entryDx=0;entryDy=0;" parent="1" source="aQniBjz_ST8hZNO2w5Fb-39" target="aQniBjz_ST8hZNO2w5Fb-33" edge="1">
          <mxGeometry relative="1" as="geometry" />
        </mxCell>
        <mxCell id="aQniBjz_ST8hZNO2w5Fb-39" value="Packer&lt;br&gt;(Named)" style="shape=or;whiteSpace=wrap;html=1;fillColor=#6a00ff;fontColor=#ffffff;strokeColor=#3700CC;" parent="1" vertex="1">
          <mxGeometry x="540" y="165" width="60" height="130" as="geometry" />
        </mxCell>
        <mxCell id="aQniBjz_ST8hZNO2w5Fb-41" style="edgeStyle=orthogonalEdgeStyle;rounded=0;orthogonalLoop=1;jettySize=auto;html=1;exitX=1;exitY=0.5;exitDx=0;exitDy=0;entryX=0;entryY=0.5;entryDx=0;entryDy=0;entryPerimeter=0;" parent="1" source="aQniBjz_ST8hZNO2w5Fb-4" target="aQniBjz_ST8hZNO2w5Fb-39" edge="1">
          <mxGeometry relative="1" as="geometry" />
        </mxCell>
        <mxCell id="aQniBjz_ST8hZNO2w5Fb-42" value="payload" style="edgeLabel;html=1;align=center;verticalAlign=middle;resizable=0;points=[];" parent="aQniBjz_ST8hZNO2w5Fb-41" vertex="1" connectable="0">
          <mxGeometry x="-0.1486" y="3" relative="1" as="geometry">
            <mxPoint as="offset" />
          </mxGeometry>
        </mxCell>
        <mxCell id="aQniBjz_ST8hZNO2w5Fb-52" style="edgeStyle=orthogonalEdgeStyle;rounded=0;orthogonalLoop=1;jettySize=auto;html=1;exitX=0;exitY=0.5;exitDx=0;exitDy=0;exitPerimeter=0;entryX=0;entryY=0.5;entryDx=0;entryDy=0;" parent="1" source="aQniBjz_ST8hZNO2w5Fb-50" target="aQniBjz_ST8hZNO2w5Fb-57" edge="1">
          <mxGeometry relative="1" as="geometry">
            <mxPoint x="1517" y="233.90909090909076" as="targetPoint" />
          </mxGeometry>
        </mxCell>
        <mxCell id="aQniBjz_ST8hZNO2w5Fb-53" value="payload" style="edgeLabel;html=1;align=center;verticalAlign=middle;resizable=0;points=[];" parent="aQniBjz_ST8hZNO2w5Fb-52" vertex="1" connectable="0">
          <mxGeometry x="-0.216" y="-2" relative="1" as="geometry">
            <mxPoint as="offset" />
          </mxGeometry>
        </mxCell>
        <mxCell id="aQniBjz_ST8hZNO2w5Fb-50" value="Unpacker&lt;br&gt;(Named)" style="shape=or;whiteSpace=wrap;html=1;fillColor=#6a00ff;fontColor=#ffffff;strokeColor=#3700CC;direction=west;" parent="1" vertex="1">
          <mxGeometry x="1337" y="169" width="60" height="130" as="geometry" />
        </mxCell>
        <mxCell id="aQniBjz_ST8hZNO2w5Fb-51" style="edgeStyle=orthogonalEdgeStyle;rounded=0;orthogonalLoop=1;jettySize=auto;html=1;exitX=1;exitY=0.5;exitDx=0;exitDy=0;entryX=1;entryY=0.5;entryDx=0;entryDy=0;entryPerimeter=0;" parent="1" source="aQniBjz_ST8hZNO2w5Fb-33" target="aQniBjz_ST8hZNO2w5Fb-50" edge="1">
          <mxGeometry relative="1" as="geometry" />
        </mxCell>
        <mxCell id="aQniBjz_ST8hZNO2w5Fb-54" value="Config value -&amp;gt; no of iterations" style="text;html=1;strokeColor=#36393d;fillColor=#ffff88;align=left;verticalAlign=top;whiteSpace=wrap;rounded=0;fixedWidth=0;autosize=1;" parent="1" vertex="1">
          <mxGeometry x="767" y="43" width="190" height="30" as="geometry" />
        </mxCell>
        <mxCell id="aQniBjz_ST8hZNO2w5Fb-59" style="edgeStyle=orthogonalEdgeStyle;rounded=0;orthogonalLoop=1;jettySize=auto;html=1;exitX=1;exitY=0.5;exitDx=0;exitDy=0;entryX=0;entryY=0.5;entryDx=0;entryDy=0;" parent="1" source="aQniBjz_ST8hZNO2w5Fb-57" target="E_g5zq5oNLUjieLQP0NN-4" edge="1">
          <mxGeometry relative="1" as="geometry">
            <mxPoint x="1737" y="234" as="targetPoint" />
          </mxGeometry>
        </mxCell>
        <mxCell id="aQniBjz_ST8hZNO2w5Fb-57" value="Create &amp;amp; Apply Dense Layer" style="rounded=0;whiteSpace=wrap;html=1;fillColor=#f0a30a;fontColor=#000000;strokeColor=#BD7000;" parent="1" vertex="1">
          <mxGeometry x="1547" y="204" width="120" height="60" as="geometry" />
        </mxCell>
        <mxCell id="aQniBjz_ST8hZNO2w5Fb-81" style="edgeStyle=orthogonalEdgeStyle;rounded=0;orthogonalLoop=1;jettySize=auto;html=1;exitX=1;exitY=0.5;exitDx=0;exitDy=0;entryX=1;entryY=0.5;entryDx=0;entryDy=0;" parent="1" source="aQniBjz_ST8hZNO2w5Fb-68" target="aQniBjz_ST8hZNO2w5Fb-83" edge="1">
          <mxGeometry relative="1" as="geometry">
            <mxPoint x="1767" y="1029.2857142857142" as="targetPoint" />
          </mxGeometry>
        </mxCell>
        <mxCell id="aQniBjz_ST8hZNO2w5Fb-68" value="Compile Model" style="rounded=0;whiteSpace=wrap;html=1;fillColor=#f0a30a;fontColor=#000000;strokeColor=#BD7000;" parent="1" vertex="1">
          <mxGeometry x="1507" y="999" width="120" height="60" as="geometry" />
        </mxCell>
        <mxCell id="aQniBjz_ST8hZNO2w5Fb-71" style="edgeStyle=orthogonalEdgeStyle;rounded=0;orthogonalLoop=1;jettySize=auto;html=1;exitX=1;exitY=0.5;exitDx=0;exitDy=0;entryX=0;entryY=0.5;entryDx=0;entryDy=0;" parent="1" source="aQniBjz_ST8hZNO2w5Fb-70" target="aQniBjz_ST8hZNO2w5Fb-68" edge="1">
          <mxGeometry relative="1" as="geometry" />
        </mxCell>
        <mxCell id="aQniBjz_ST8hZNO2w5Fb-70" value="Generate Adam Optimizer" style="rounded=0;whiteSpace=wrap;html=1;fillColor=#f0a30a;fontColor=#000000;strokeColor=#BD7000;" parent="1" vertex="1">
          <mxGeometry x="1277" y="1024" width="120" height="60" as="geometry" />
        </mxCell>
        <mxCell id="aQniBjz_ST8hZNO2w5Fb-75" style="edgeStyle=orthogonalEdgeStyle;rounded=0;orthogonalLoop=1;jettySize=auto;html=1;exitX=1;exitY=0.5;exitDx=0;exitDy=0;entryX=0;entryY=0.5;entryDx=0;entryDy=0;" parent="1" source="aQniBjz_ST8hZNO2w5Fb-72" target="aQniBjz_ST8hZNO2w5Fb-70" edge="1">
          <mxGeometry relative="1" as="geometry" />
        </mxCell>
        <mxCell id="aQniBjz_ST8hZNO2w5Fb-72" value="Get Tunable From List" style="rounded=0;whiteSpace=wrap;html=1;fillColor=#f0a30a;fontColor=#000000;strokeColor=#BD7000;" parent="1" vertex="1">
          <mxGeometry x="1047" y="1179" width="120" height="60" as="geometry" />
        </mxCell>
        <mxCell id="aQniBjz_ST8hZNO2w5Fb-73" style="edgeStyle=orthogonalEdgeStyle;rounded=0;orthogonalLoop=1;jettySize=auto;html=1;exitX=1;exitY=0.5;exitDx=0;exitDy=0;entryX=0;entryY=0.5;entryDx=0;entryDy=0;" parent="1" source="aQniBjz_ST8hZNO2w5Fb-74" target="aQniBjz_ST8hZNO2w5Fb-72" edge="1">
          <mxGeometry relative="1" as="geometry" />
        </mxCell>
        <mxCell id="aQniBjz_ST8hZNO2w5Fb-74" value="Raw Data" style="rounded=0;whiteSpace=wrap;html=1;fillColor=#f0a30a;fontColor=#000000;strokeColor=#BD7000;" parent="1" vertex="1">
          <mxGeometry x="787" y="1179" width="120" height="60" as="geometry" />
        </mxCell>
        <mxCell id="aQniBjz_ST8hZNO2w5Fb-77" value="Raw Data" style="rounded=0;whiteSpace=wrap;html=1;fillColor=#f0a30a;fontColor=#000000;strokeColor=#BD7000;" parent="1" vertex="1">
          <mxGeometry x="1047" y="1339" width="120" height="60" as="geometry" />
        </mxCell>
        <mxCell id="aQniBjz_ST8hZNO2w5Fb-79" style="edgeStyle=orthogonalEdgeStyle;rounded=0;orthogonalLoop=1;jettySize=auto;html=1;exitX=1;exitY=0.5;exitDx=0;exitDy=0;entryX=0.25;entryY=1;entryDx=0;entryDy=0;" parent="1" source="aQniBjz_ST8hZNO2w5Fb-78" target="aQniBjz_ST8hZNO2w5Fb-68" edge="1">
          <mxGeometry relative="1" as="geometry" />
        </mxCell>
        <mxCell id="aQniBjz_ST8hZNO2w5Fb-78" value="Raw Data" style="rounded=0;whiteSpace=wrap;html=1;fillColor=#f0a30a;fontColor=#000000;strokeColor=#BD7000;" parent="1" vertex="1">
          <mxGeometry x="1047" y="1259" width="120" height="60" as="geometry" />
        </mxCell>
        <mxCell id="aQniBjz_ST8hZNO2w5Fb-80" style="edgeStyle=orthogonalEdgeStyle;rounded=0;orthogonalLoop=1;jettySize=auto;html=1;exitX=1;exitY=0.5;exitDx=0;exitDy=0;entryX=0.75;entryY=1;entryDx=0;entryDy=0;" parent="1" source="aQniBjz_ST8hZNO2w5Fb-77" target="aQniBjz_ST8hZNO2w5Fb-68" edge="1">
          <mxGeometry relative="1" as="geometry" />
        </mxCell>
        <mxCell id="aQniBjz_ST8hZNO2w5Fb-83" value="Compiled Model" style="triangle;whiteSpace=wrap;html=1;direction=west;align=right;fillColor=#0050ef;fontColor=#ffffff;strokeColor=#001DBC;" parent="1" vertex="1">
          <mxGeometry x="1827" y="980" width="120" height="98" as="geometry" />
        </mxCell>
        <mxCell id="aQniBjz_ST8hZNO2w5Fb-84" value="This is a model artefact. It can specify the structure of any hypermodel. Therefore, it will always generate a get_uncompiled_model function and will return an uncompiled model (not a hypermodel)." style="text;html=1;strokeColor=#36393d;fillColor=#ffff88;align=left;verticalAlign=top;whiteSpace=wrap;rounded=0;fixedWidth=0;autosize=1;" parent="1" vertex="1">
          <mxGeometry x="240" y="-150" width="1060" height="30" as="geometry" />
        </mxCell>
        <mxCell id="aQniBjz_ST8hZNO2w5Fb-86" value="Classifier Model" style="swimlane;whiteSpace=wrap;html=1;fillColor=#a20025;fontColor=#ffffff;strokeColor=#6F0000;" parent="1" vertex="1">
          <mxGeometry x="-450" y="-210" width="2330" height="540" as="geometry" />
        </mxCell>
        <mxCell id="aQniBjz_ST8hZNO2w5Fb-32" value="The right pane will have a button per config parameter to allow the user to choose whether to use a graphical input handle or the textual right page input. Each node must also have an extra input handle for a generic named container." style="text;html=1;strokeColor=#36393d;fillColor=#ffff88;align=left;verticalAlign=top;whiteSpace=wrap;rounded=0;fixedWidth=0;autosize=1;" parent="aQniBjz_ST8hZNO2w5Fb-86" vertex="1">
          <mxGeometry x="630" y="220" width="180" height="140" as="geometry" />
        </mxCell>
        <mxCell id="aQniBjz_ST8hZNO2w5Fb-89" style="edgeStyle=orthogonalEdgeStyle;rounded=0;orthogonalLoop=1;jettySize=auto;html=1;exitX=1;exitY=0.5;exitDx=0;exitDy=0;entryX=0;entryY=0.25;entryDx=0;entryDy=0;" parent="1" source="aQniBjz_ST8hZNO2w5Fb-88" target="aQniBjz_ST8hZNO2w5Fb-68" edge="1">
          <mxGeometry relative="1" as="geometry" />
        </mxCell>
        <mxCell id="aQniBjz_ST8hZNO2w5Fb-88" value="Classifier Model" style="rounded=0;whiteSpace=wrap;html=1;fillColor=#f0a30a;fontColor=#000000;strokeColor=#BD7000;" parent="1" vertex="1">
          <mxGeometry x="1090" y="910" width="120" height="60" as="geometry" />
        </mxCell>
        <mxCell id="aQniBjz_ST8hZNO2w5Fb-90" value="Compiled Classifier Model" style="swimlane;whiteSpace=wrap;html=1;fillColor=#a20025;fontColor=#ffffff;strokeColor=#6F0000;" parent="1" vertex="1">
          <mxGeometry x="720" y="780" width="1240" height="650" as="geometry" />
        </mxCell>
        <mxCell id="aQniBjz_ST8hZNO2w5Fb-91" value="This is a Compiled Model artefact that will be coded as a build_model function, and will always return a compiled model (not a hypermodel)" style="text;html=1;strokeColor=#36393d;fillColor=#ffff88;align=left;verticalAlign=top;whiteSpace=wrap;rounded=0;fixedWidth=0;autosize=1;" parent="1" vertex="1">
          <mxGeometry x="990" y="830" width="760" height="30" as="geometry" />
        </mxCell>
        <mxCell id="E_g5zq5oNLUjieLQP0NN-1" value="Input" style="rounded=0;whiteSpace=wrap;html=1;fillColor=#f0a30a;fontColor=#000000;strokeColor=#BD7000;" parent="1" vertex="1">
          <mxGeometry x="-229" y="200" width="120" height="60" as="geometry" />
        </mxCell>
        <mxCell id="E_g5zq5oNLUjieLQP0NN-4" value="Output" style="rounded=0;whiteSpace=wrap;html=1;fillColor=#f0a30a;fontColor=#000000;strokeColor=#BD7000;" parent="1" vertex="1">
          <mxGeometry x="1744" y="204" width="120" height="60" as="geometry" />
        </mxCell>
        <mxCell id="E_g5zq5oNLUjieLQP0NN-7" style="edgeStyle=orthogonalEdgeStyle;rounded=0;orthogonalLoop=1;jettySize=auto;html=1;exitX=1;exitY=0.25;exitDx=0;exitDy=0;entryX=0;entryY=0.5;entryDx=0;entryDy=0;" parent="1" source="E_g5zq5oNLUjieLQP0NN-6" target="E_g5zq5oNLUjieLQP0NN-16" edge="1">
          <mxGeometry relative="1" as="geometry">
            <mxPoint x="-510" y="977.9230769230769" as="targetPoint" />
          </mxGeometry>
        </mxCell>
        <mxCell id="E_g5zq5oNLUjieLQP0NN-12" value="x_train" style="edgeLabel;html=1;align=center;verticalAlign=middle;resizable=0;points=[];" parent="E_g5zq5oNLUjieLQP0NN-7" vertex="1" connectable="0">
          <mxGeometry x="-0.0478" relative="1" as="geometry">
            <mxPoint as="offset" />
          </mxGeometry>
        </mxCell>
        <mxCell id="E_g5zq5oNLUjieLQP0NN-8" style="edgeStyle=orthogonalEdgeStyle;rounded=0;orthogonalLoop=1;jettySize=auto;html=1;exitX=1;exitY=0.5;exitDx=0;exitDy=0;entryX=0;entryY=0.5;entryDx=0;entryDy=0;" parent="1" source="E_g5zq5oNLUjieLQP0NN-6" target="E_g5zq5oNLUjieLQP0NN-17" edge="1">
          <mxGeometry relative="1" as="geometry">
            <mxPoint x="-510" y="992.1538461538462" as="targetPoint" />
          </mxGeometry>
        </mxCell>
        <mxCell id="E_g5zq5oNLUjieLQP0NN-13" value="x_test" style="edgeLabel;html=1;align=center;verticalAlign=middle;resizable=0;points=[];" parent="E_g5zq5oNLUjieLQP0NN-8" vertex="1" connectable="0">
          <mxGeometry x="-0.2011" relative="1" as="geometry">
            <mxPoint as="offset" />
          </mxGeometry>
        </mxCell>
        <mxCell id="E_g5zq5oNLUjieLQP0NN-9" style="edgeStyle=orthogonalEdgeStyle;rounded=0;orthogonalLoop=1;jettySize=auto;html=1;exitX=1;exitY=0.75;exitDx=0;exitDy=0;entryX=1;entryY=0.5;entryDx=0;entryDy=0;" parent="1" source="E_g5zq5oNLUjieLQP0NN-6" target="E_g5zq5oNLUjieLQP0NN-20" edge="1">
          <mxGeometry relative="1" as="geometry">
            <mxPoint x="-510" y="1006" as="targetPoint" />
          </mxGeometry>
        </mxCell>
        <mxCell id="E_g5zq5oNLUjieLQP0NN-14" value="y_train" style="edgeLabel;html=1;align=center;verticalAlign=middle;resizable=0;points=[];" parent="E_g5zq5oNLUjieLQP0NN-9" vertex="1" connectable="0">
          <mxGeometry x="-0.1993" y="1" relative="1" as="geometry">
            <mxPoint as="offset" />
          </mxGeometry>
        </mxCell>
        <mxCell id="E_g5zq5oNLUjieLQP0NN-11" style="edgeStyle=orthogonalEdgeStyle;rounded=0;orthogonalLoop=1;jettySize=auto;html=1;exitX=1;exitY=1;exitDx=0;exitDy=0;entryX=1;entryY=0.5;entryDx=0;entryDy=0;" parent="1" source="E_g5zq5oNLUjieLQP0NN-6" target="E_g5zq5oNLUjieLQP0NN-21" edge="1">
          <mxGeometry relative="1" as="geometry">
            <mxPoint x="-510" y="1020" as="targetPoint" />
          </mxGeometry>
        </mxCell>
        <mxCell id="E_g5zq5oNLUjieLQP0NN-15" value="y_test" style="edgeLabel;html=1;align=center;verticalAlign=middle;resizable=0;points=[];" parent="E_g5zq5oNLUjieLQP0NN-11" vertex="1" connectable="0">
          <mxGeometry x="-0.1498" relative="1" as="geometry">
            <mxPoint as="offset" />
          </mxGeometry>
        </mxCell>
        <mxCell id="E_g5zq5oNLUjieLQP0NN-6" value="Load Keras Dataset" style="rounded=0;whiteSpace=wrap;html=1;fillColor=#f0a30a;fontColor=#000000;strokeColor=#BD7000;" parent="1" vertex="1">
          <mxGeometry x="-860" y="962" width="120" height="56" as="geometry" />
        </mxCell>
        <mxCell id="E_g5zq5oNLUjieLQP0NN-22" style="edgeStyle=orthogonalEdgeStyle;rounded=0;orthogonalLoop=1;jettySize=auto;html=1;exitX=1;exitY=0.5;exitDx=0;exitDy=0;entryX=1;entryY=0.5;entryDx=0;entryDy=0;" parent="1" source="E_g5zq5oNLUjieLQP0NN-16" target="E_g5zq5oNLUjieLQP0NN-18" edge="1">
          <mxGeometry relative="1" as="geometry" />
        </mxCell>
        <mxCell id="E_g5zq5oNLUjieLQP0NN-16" value="Divide By" style="rounded=0;whiteSpace=wrap;html=1;fillColor=#f0a30a;fontColor=#000000;strokeColor=#BD7000;" parent="1" vertex="1">
          <mxGeometry x="-470" y="750" width="120" height="60" as="geometry" />
        </mxCell>
        <mxCell id="E_g5zq5oNLUjieLQP0NN-23" style="edgeStyle=orthogonalEdgeStyle;rounded=0;orthogonalLoop=1;jettySize=auto;html=1;exitX=1;exitY=0.5;exitDx=0;exitDy=0;entryX=1;entryY=0.5;entryDx=0;entryDy=0;" parent="1" source="E_g5zq5oNLUjieLQP0NN-17" target="E_g5zq5oNLUjieLQP0NN-19" edge="1">
          <mxGeometry relative="1" as="geometry" />
        </mxCell>
        <mxCell id="E_g5zq5oNLUjieLQP0NN-17" value="Divide By" style="rounded=0;whiteSpace=wrap;html=1;fillColor=#f0a30a;fontColor=#000000;strokeColor=#BD7000;" parent="1" vertex="1">
          <mxGeometry x="-400" y="840" width="120" height="60" as="geometry" />
        </mxCell>
        <mxCell id="E_g5zq5oNLUjieLQP0NN-18" value="x_train" style="triangle;whiteSpace=wrap;html=1;direction=west;align=right;fillColor=#0050ef;fontColor=#ffffff;strokeColor=#001DBC;" parent="1" vertex="1">
          <mxGeometry x="-80" y="760" width="60" height="80" as="geometry" />
        </mxCell>
        <mxCell id="E_g5zq5oNLUjieLQP0NN-19" value="x_test" style="triangle;whiteSpace=wrap;html=1;direction=west;align=right;fillColor=#0050ef;fontColor=#ffffff;strokeColor=#001DBC;" parent="1" vertex="1">
          <mxGeometry x="-109" y="882" width="60" height="80" as="geometry" />
        </mxCell>
        <mxCell id="E_g5zq5oNLUjieLQP0NN-20" value="y_train" style="triangle;whiteSpace=wrap;html=1;direction=west;align=right;fillColor=#0050ef;fontColor=#ffffff;strokeColor=#001DBC;" parent="1" vertex="1">
          <mxGeometry x="-120" y="1040" width="60" height="80" as="geometry" />
        </mxCell>
        <mxCell id="E_g5zq5oNLUjieLQP0NN-21" value="y_test" style="triangle;whiteSpace=wrap;html=1;direction=west;align=right;fillColor=#0050ef;fontColor=#ffffff;strokeColor=#001DBC;" parent="1" vertex="1">
          <mxGeometry x="-109" y="1179" width="60" height="80" as="geometry" />
        </mxCell>
        <mxCell id="E_g5zq5oNLUjieLQP0NN-25" value="MNIST Data Loader" style="swimlane;whiteSpace=wrap;html=1;fillColor=#a20025;fontColor=#ffffff;strokeColor=#6F0000;" parent="1" vertex="1">
          <mxGeometry x="-990" y="630" width="1240" height="650" as="geometry" />
        </mxCell>
        <mxCell id="E_g5zq5oNLUjieLQP0NN-41" style="edgeStyle=orthogonalEdgeStyle;rounded=0;orthogonalLoop=1;jettySize=auto;html=1;exitX=1;exitY=0.5;exitDx=0;exitDy=0;entryX=1;entryY=0.5;entryDx=0;entryDy=0;" parent="1" source="E_g5zq5oNLUjieLQP0NN-26" target="E_g5zq5oNLUjieLQP0NN-40" edge="1">
          <mxGeometry relative="1" as="geometry" />
        </mxCell>
        <mxCell id="E_g5zq5oNLUjieLQP0NN-26" value="Get Best Model After Tuning" style="rounded=0;whiteSpace=wrap;html=1;fillColor=#f0a30a;fontColor=#000000;strokeColor=#BD7000;" parent="1" vertex="1">
          <mxGeometry x="1700" y="1750" width="120" height="60" as="geometry" />
        </mxCell>
        <mxCell id="E_g5zq5oNLUjieLQP0NN-32" style="edgeStyle=orthogonalEdgeStyle;rounded=0;orthogonalLoop=1;jettySize=auto;html=1;exitX=1;exitY=0.5;exitDx=0;exitDy=0;exitPerimeter=0;entryX=0;entryY=0.25;entryDx=0;entryDy=0;" parent="1" source="E_g5zq5oNLUjieLQP0NN-27" target="E_g5zq5oNLUjieLQP0NN-26" edge="1">
          <mxGeometry relative="1" as="geometry" />
        </mxCell>
        <mxCell id="E_g5zq5oNLUjieLQP0NN-39" value="build_model" style="edgeLabel;html=1;align=center;verticalAlign=middle;resizable=0;points=[];" parent="E_g5zq5oNLUjieLQP0NN-32" vertex="1" connectable="0">
          <mxGeometry x="0.6329" y="2" relative="1" as="geometry">
            <mxPoint as="offset" />
          </mxGeometry>
        </mxCell>
        <mxCell id="E_g5zq5oNLUjieLQP0NN-27" value="&lt;font color=&quot;#000000&quot;&gt;Compiled Classifier Model&lt;/font&gt;" style="shape=providedRequiredInterface;html=1;verticalLabelPosition=bottom;sketch=0;fillColor=#d80073;fontColor=#ffffff;strokeColor=#A50040;" parent="1" vertex="1">
          <mxGeometry x="1277" y="1720" width="20" height="20" as="geometry" />
        </mxCell>
        <mxCell id="E_g5zq5oNLUjieLQP0NN-28" value="MNIST Data Loader" style="rounded=0;whiteSpace=wrap;html=1;fillColor=#f0a30a;fontColor=#000000;strokeColor=#BD7000;" parent="1" vertex="1">
          <mxGeometry x="1190" y="1860" width="120" height="60" as="geometry" />
        </mxCell>
        <mxCell id="E_g5zq5oNLUjieLQP0NN-37" style="edgeStyle=orthogonalEdgeStyle;rounded=0;orthogonalLoop=1;jettySize=auto;html=1;exitX=1;exitY=0.5;exitDx=0;exitDy=0;exitPerimeter=0;entryX=0;entryY=0.75;entryDx=0;entryDy=0;" parent="1" source="E_g5zq5oNLUjieLQP0NN-31" target="E_g5zq5oNLUjieLQP0NN-26" edge="1">
          <mxGeometry relative="1" as="geometry" />
        </mxCell>
        <mxCell id="E_g5zq5oNLUjieLQP0NN-38" value="*" style="edgeLabel;html=1;align=center;verticalAlign=middle;resizable=0;points=[];" parent="E_g5zq5oNLUjieLQP0NN-37" vertex="1" connectable="0">
          <mxGeometry x="0.5566" y="3" relative="1" as="geometry">
            <mxPoint as="offset" />
          </mxGeometry>
        </mxCell>
        <mxCell id="E_g5zq5oNLUjieLQP0NN-31" value="Packer&lt;br&gt;(Named)" style="shape=or;whiteSpace=wrap;html=1;fillColor=#6a00ff;fontColor=#ffffff;strokeColor=#3700CC;" parent="1" vertex="1">
          <mxGeometry x="1440" y="1825" width="60" height="130" as="geometry" />
        </mxCell>
        <mxCell id="E_g5zq5oNLUjieLQP0NN-33" style="edgeStyle=orthogonalEdgeStyle;rounded=0;orthogonalLoop=1;jettySize=auto;html=1;exitX=1;exitY=0.25;exitDx=0;exitDy=0;entryX=0;entryY=0.25;entryDx=0;entryDy=0;entryPerimeter=0;" parent="1" source="E_g5zq5oNLUjieLQP0NN-28" target="E_g5zq5oNLUjieLQP0NN-31" edge="1">
          <mxGeometry relative="1" as="geometry" />
        </mxCell>
        <mxCell id="E_g5zq5oNLUjieLQP0NN-34" style="edgeStyle=orthogonalEdgeStyle;rounded=0;orthogonalLoop=1;jettySize=auto;html=1;exitX=1;exitY=0.5;exitDx=0;exitDy=0;entryX=0;entryY=0.5;entryDx=0;entryDy=0;entryPerimeter=0;" parent="1" source="E_g5zq5oNLUjieLQP0NN-28" target="E_g5zq5oNLUjieLQP0NN-31" edge="1">
          <mxGeometry relative="1" as="geometry" />
        </mxCell>
        <mxCell id="E_g5zq5oNLUjieLQP0NN-35" style="edgeStyle=orthogonalEdgeStyle;rounded=0;orthogonalLoop=1;jettySize=auto;html=1;exitX=1;exitY=0.75;exitDx=0;exitDy=0;entryX=0;entryY=0.75;entryDx=0;entryDy=0;entryPerimeter=0;" parent="1" source="E_g5zq5oNLUjieLQP0NN-28" target="E_g5zq5oNLUjieLQP0NN-31" edge="1">
          <mxGeometry relative="1" as="geometry" />
        </mxCell>
        <mxCell id="E_g5zq5oNLUjieLQP0NN-36" style="edgeStyle=orthogonalEdgeStyle;rounded=0;orthogonalLoop=1;jettySize=auto;html=1;exitX=1;exitY=1;exitDx=0;exitDy=0;entryX=0.007;entryY=0.983;entryDx=0;entryDy=0;entryPerimeter=0;" parent="1" source="E_g5zq5oNLUjieLQP0NN-28" target="E_g5zq5oNLUjieLQP0NN-31" edge="1">
          <mxGeometry relative="1" as="geometry" />
        </mxCell>
        <mxCell id="E_g5zq5oNLUjieLQP0NN-40" value="model" style="triangle;whiteSpace=wrap;html=1;direction=west;align=right;fillColor=#0050ef;fontColor=#ffffff;strokeColor=#001DBC;" parent="1" vertex="1">
          <mxGeometry x="1960" y="1740" width="60" height="80" as="geometry" />
        </mxCell>
        <mxCell id="E_g5zq5oNLUjieLQP0NN-42" value="Model Tuner" style="swimlane;whiteSpace=wrap;html=1;fillColor=#a20025;fontColor=#ffffff;strokeColor=#6F0000;" parent="1" vertex="1">
          <mxGeometry x="1170" y="1610" width="880" height="380" as="geometry" />
        </mxCell>
        <mxCell id="E_g5zq5oNLUjieLQP0NN-45" style="edgeStyle=orthogonalEdgeStyle;rounded=0;orthogonalLoop=1;jettySize=auto;html=1;exitX=1;exitY=0.5;exitDx=0;exitDy=0;entryX=0;entryY=0.25;entryDx=0;entryDy=0;" parent="1" source="E_g5zq5oNLUjieLQP0NN-43" target="E_g5zq5oNLUjieLQP0NN-44" edge="1">
          <mxGeometry relative="1" as="geometry" />
        </mxCell>
        <mxCell id="E_g5zq5oNLUjieLQP0NN-43" value="Model Tuner" style="rounded=0;whiteSpace=wrap;html=1;fillColor=#f0a30a;fontColor=#000000;strokeColor=#BD7000;" parent="1" vertex="1">
          <mxGeometry x="1107" y="2180" width="120" height="60" as="geometry" />
        </mxCell>
        <mxCell id="E_g5zq5oNLUjieLQP0NN-44" value="Evaluate Model On Data and Print Result" style="rounded=0;whiteSpace=wrap;html=1;fillColor=#f0a30a;fontColor=#000000;strokeColor=#BD7000;" parent="1" vertex="1">
          <mxGeometry x="1427" y="2200" width="120" height="60" as="geometry" />
        </mxCell>
        <mxCell id="E_g5zq5oNLUjieLQP0NN-47" style="edgeStyle=orthogonalEdgeStyle;rounded=0;orthogonalLoop=1;jettySize=auto;html=1;exitX=1;exitY=0.25;exitDx=0;exitDy=0;entryX=0;entryY=0.5;entryDx=0;entryDy=0;" parent="1" source="E_g5zq5oNLUjieLQP0NN-46" target="E_g5zq5oNLUjieLQP0NN-44" edge="1">
          <mxGeometry relative="1" as="geometry" />
        </mxCell>
        <mxCell id="E_g5zq5oNLUjieLQP0NN-48" style="edgeStyle=orthogonalEdgeStyle;rounded=0;orthogonalLoop=1;jettySize=auto;html=1;exitX=1;exitY=0.75;exitDx=0;exitDy=0;entryX=0;entryY=0.75;entryDx=0;entryDy=0;" parent="1" source="E_g5zq5oNLUjieLQP0NN-46" target="E_g5zq5oNLUjieLQP0NN-44" edge="1">
          <mxGeometry relative="1" as="geometry" />
        </mxCell>
        <mxCell id="E_g5zq5oNLUjieLQP0NN-46" value="MNIST Data Loader" style="rounded=0;whiteSpace=wrap;html=1;fillColor=#f0a30a;fontColor=#000000;strokeColor=#BD7000;" parent="1" vertex="1">
          <mxGeometry x="1070" y="2260" width="120" height="60" as="geometry" />
        </mxCell>
        <mxCell id="E_g5zq5oNLUjieLQP0NN-49" value="Model Evaluator" style="swimlane;whiteSpace=wrap;html=1;fillColor=#a20025;fontColor=#ffffff;strokeColor=#6F0000;" parent="1" vertex="1">
          <mxGeometry x="1030" y="2130" width="540" height="210" as="geometry" />
        </mxCell>
      </root>
    </mxGraphModel>
  </diagram>
</mxfile>
